<svg height="512" viewBox="0 0 60 49" width="512" xmlns="http://www.w3.org/2000/svg"><g id="Page-1" fill="none" fill-rule="evenodd"><g id="006---Love-Conversation" fill="rgb(0,0,0)" fill-rule="nonzero"><path id="Shape" d="m16.383 15.981c.2548987.0751819.5292887.0451616.7619009-.0833576.2326123-.1285193.404074-.3448338.4760991-.6006424 2.257-7.829 10.432-13.297 19.879-13.297 11.3 0 20.5 7.864 20.5 17.53-.0114165 3.2855191-1.0614723 6.4832889-3 9.136-.1874914.2606145-.2384534.5954017-.137.9l2.637 7.89-10.264-2.282c-.204209-.0465377-.4179482-.0265654-.61.057-2.8850763 1.2279089-5.990524 1.8536944-9.126 1.839h-.24c-.5522847 0-1 .4477153-1 1s.4477153 1 1 1h.24c3.2961911.015566 6.5630122-.619923 9.613-1.87l10.4 2.313c.1193892.0250018.2410213.0377347.363.038.5610033.0008833 1.0883816-.2673978 1.4180068-.7213501.3296251-.4539523.4214857-1.0384728.2469932-1.5716499l-2.62-7.842c1.9986831-2.9099717 3.0718746-6.3557565 3.079-9.886 0-10.769-10.094-19.53-22.5-19.53-10.334 0-19.3 6.063-21.8 14.743-.1531303.5304551.1526113 1.0846398.683 1.238z"/><path id="Shape" d="m.37 46.746c-.18090205.5367545-.0580582 1.1293546.32130288 1.5499686.37936109.420614.95618178.6037622 1.50869712.4790314l7.9-1.755c2.3499133.954111 4.8638032 1.4392238 7.4 1.428 9.649 0 17.5-6.829 17.5-15.224s-7.851-15.224-17.5-15.224-17.5 6.83-17.5 15.224c.00876252 2.7143514.82316864 5.3649996 2.34 7.616zm1.63-13.522c0-7.292 6.953-13.224 15.5-13.224s15.5 5.932 15.5 13.224-6.953 13.224-15.5 13.224c-2.3743954.0111874-4.7260792-.4624841-6.911-1.392-.1927669-.0822301-.406497-.1018191-.611-.056l-7.47 1.659 1.887-5.659c.10173972-.3044402.05115161-.6392145-.136-.9-1.45649588-1.9978491-2.24687538-4.4036258-2.259-6.876z"/><path id="Shape" d="m17.055 42.9c.2803163.1392926.6096837.1392926.89 0 8.748-4.361 10.055-9.119 10.055-11.567 0-3.551-2.525-6.333-5.75-6.333-1.7689149-.0019061-3.4703761.6786784-4.75 1.9-1.2796239-1.2213216-2.9810851-1.9019061-4.75-1.9-3.225 0-5.75 2.782-5.75 6.333 0 2.448 1.307 7.206 10.055 11.567zm-4.305-15.9c1.5412195.0026582 2.9921367.7273765 3.92 1.958.1855042.2737342.494332.438068.825.439.3365182.014515.6549332-.1527101.834-.438.9280722-1.2310343 2.3793272-1.9561066 3.921-1.959 2.138 0 3.75 1.863 3.75 4.333 0 3.29-3.091 6.752-8.5 9.546-5.409-2.794-8.5-6.256-8.5-9.546 0-2.47 1.612-4.333 3.75-4.333z"/><path id="Shape" d="m33.518 13.124c-2.1979129 1.1760101-4.8380871 1.1760101-7.036 0-.3135639-.1796763-.6996756-.1761885-1.0099426.0091228s-.4964083.5236096-.4868852.8848785.2132288.6892908.5328278.8579987c2.8001673 1.4983244 6.1638327 1.4983244 8.964 0 .4733313-.2712251.6419425-.8717645.3789564-1.3497226s-.860515-.6569455-1.3429564-.4022774z"/><path id="Shape" d="m45 16c1.5646285.0072017 3.1059274-.3793266 4.482-1.124.4733313-.2712251.6419425-.8717645.3789564-1.3497226s-.860515-.6569455-1.3429564-.4022774c-2.1979129 1.1760101-4.8380871 1.1760101-7.036 0-.3135639-.1796763-.6996756-.1761885-1.0099426.0091228s-.4964083.5236096-.4868852.8848785.2132288.6892908.5328278.8579987c1.3760726.7446734 2.9173715 1.1312017 4.482 1.124z"/><path id="Shape" d="m37.221 26.994c-.3603169-.036795-.7123658.1241169-.9203253.4206552-.2079595.2965384-.2393197.6823461-.0819817 1.0085775.1573379.3262313.4787777.5418874.840307.5637673.147.012.294.013.441.013 12.227 0 13.444-7.538 13.49-7.858.0803574-.5464857-.2975143-1.0546425-.844-1.135-.5464858-.0803574-1.0546425.2975143-1.135.844-.04.249-1.101 6.149-11.511 6.149-.093 0-.187 0-.279-.006z"/></g></g></svg>